<svg xmlns="http://www.w3.org/2000/svg" viewBox="280.999 209.277 26.585 24.375" xmlns:v="https://vecta.io/nano"><path d="M283.936 209.277l22.618 22.503-1.882 1.872-11.715-11.655v10.183l-6.906-5.303h-5.052v-10.589h5.045l.657-.514-4.647-4.625 1.882-1.872zm19.596 1.738c4.125 4.575 5.203 11.117 2.762 16.762l-2.055-2.044c1.489-4.406.562-9.43-2.782-13.065l2.076-1.653h-.001zm-14.935 6.644l-1.63 1.276h-3.307v5.294h3.299l3.338 2.562v-7.442l-1.7-1.691v.001zm9.672-2.454c1.726 1.91 2.599 4.435 2.419 6.996l-3.071-3.056a6.86 6.86 0 0 0-1.426-2.287l2.078-1.653zm-5.311-4.329v3.634l-2.045-2.034 2.045-1.601v.001z" fill="#fff"/></svg>